<svg width="52" height="52" viewBox="0 0 52 52" fill="none" xmlns="http://www.w3.org/2000/svg">
<path d="M26.2857 0.885742C12.0786 0.885742 0.571411 12.3946 0.571411 26.6039C0.571411 37.9843 7.93212 47.5964 18.1536 51.0041C19.4393 51.2291 19.9214 50.4576 19.9214 49.7825C19.9214 49.1717 19.8893 47.1464 19.8893 44.9925C13.4286 46.1819 11.7571 43.4172 11.2428 41.9706C10.9536 41.2312 9.69998 38.9487 8.60713 38.3379C7.70713 37.8557 6.42141 36.6662 8.57498 36.634C10.6 36.6019 12.0464 38.4986 12.5286 39.2702C14.8428 43.16 18.5393 42.067 20.0178 41.3919C20.2428 39.7202 20.9178 38.5951 21.6571 37.9521C15.9357 37.3092 9.95713 35.091 9.95713 25.2537C9.95713 22.4569 10.9536 20.1422 12.5928 18.342C12.3357 17.699 11.4357 15.0629 12.85 11.5266C12.85 11.5266 15.0036 10.8515 19.9214 14.1628C21.9786 13.5841 24.1643 13.2948 26.35 13.2948C28.5357 13.2948 30.7214 13.5841 32.7786 14.1628C37.6964 10.8194 39.85 11.5266 39.85 11.5266C41.2643 15.0629 40.3643 17.699 40.1071 18.342C41.7464 20.1422 42.7428 22.4247 42.7428 25.2537C42.7428 35.1231 36.7321 37.3092 31.0107 37.9521C31.9428 38.7558 32.7464 40.2989 32.7464 42.71C32.7464 46.1498 32.7143 48.9145 32.7143 49.7825C32.7143 50.4576 33.1964 51.2613 34.4821 51.0041C39.5871 49.2809 44.0232 45.9998 47.1658 41.6226C50.3083 37.2454 51.9991 31.9927 52 26.6039C52 12.3946 40.4928 0.885742 26.2857 0.885742Z" fill="#F6F6F6"/>
</svg>
