<svg width="52" height="52" viewBox="0 0 52 52" fill="none" xmlns="http://www.w3.org/2000/svg">
<g clip-path="url(#clip0_72_394)">
<path d="M25.7143 0.520752C20.6285 0.520752 15.6569 2.0291 11.4282 4.85505C7.19951 7.681 3.90365 11.6976 1.9574 16.397C0.0111416 21.0964 -0.498087 26.2675 0.494104 31.2563C1.4863 36.2452 3.93534 40.8277 7.53155 44.4245C11.1278 48.0212 15.7096 50.4707 20.6977 51.463C25.6858 52.4553 30.8561 51.946 35.5547 49.9995C40.2534 48.0529 44.2694 44.7566 47.0949 40.5272C49.9205 36.2979 51.4286 31.3255 51.4286 26.239C51.4286 19.4181 48.7194 12.8765 43.897 8.05344C39.0747 3.23034 32.5341 0.520752 25.7143 0.520752V0.520752ZM15.4286 15.9517H13.7143V36.5262H15.4286V39.9553H10.2857V12.5226H15.4286V15.9517ZM34.2857 31.3826H31.2V24.2672C31.2163 24.0522 31.1889 23.8361 31.1193 23.6321C31.0498 23.428 30.9395 23.2401 30.7953 23.0798C30.6511 22.9196 30.4759 22.7902 30.2803 22.6996C30.0846 22.609 29.8727 22.559 29.6572 22.5527C29.4241 22.4995 29.1829 22.4927 28.9473 22.5329C28.7117 22.5731 28.4863 22.6593 28.284 22.7867C28.0818 22.9141 27.9067 23.0802 27.7687 23.2754C27.6307 23.4706 27.5326 23.6911 27.48 23.9243C27.3713 24.3794 27.3138 24.8452 27.3086 25.3131C27.3086 27.0277 27.3086 31.3483 27.3086 31.3483H24.1543C24.1543 31.3483 24.1543 24.6616 24.1543 24.4901C24.1543 23.2556 23.6229 22.6727 22.5772 22.587C22.0527 22.5315 21.5269 22.6779 21.1065 22.9964C20.6862 23.3149 20.4029 23.7816 20.3143 24.3015C20.2511 24.6522 20.2224 25.0082 20.2286 25.3645C20.2286 27.3877 20.2286 31.4683 20.2286 31.4683H17.1429V20.4781H20.0229V21.9183C20.4221 21.386 20.9397 20.9539 21.5348 20.6563C22.1299 20.3587 22.7861 20.2038 23.4514 20.2038C24.1039 20.1469 24.7591 20.2781 25.3393 20.582C25.9196 20.8858 26.4007 21.3496 26.7257 21.9183C27.1277 21.5344 27.5513 21.1738 27.9943 20.8381C28.7074 20.3756 29.5448 20.1423 30.3943 20.1695C31.079 20.1441 31.758 20.3025 32.3609 20.6281C32.9637 20.9537 33.4685 21.4347 33.8229 22.0212C34.0795 22.496 34.2205 23.0247 34.2343 23.5643C34.2857 26.0332 34.2857 31.3826 34.2857 31.3826ZM41.1429 39.9553H36V36.5262H37.7143V15.9517H36V12.5226H41.1429V39.9553Z" fill="#F6F6F6"/>
</g>
<defs>
<clipPath id="clip0_72_394">
<rect width="51.4286" height="51.4364" fill="white" transform="translate(0 0.520752)"/>
</clipPath>
</defs>
</svg>
