<svg width="52" height="52" viewBox="0 0 52 52" fill="none" xmlns="http://www.w3.org/2000/svg">
<path d="M25.8572 0.520752C11.657 0.520752 0.142944 12.0365 0.142944 26.239C0.142944 40.4414 11.657 51.9572 25.8572 51.9572C40.0575 51.9572 51.5715 40.4414 51.5715 26.239C51.5715 12.0365 40.0575 0.520752 25.8572 0.520752ZM40.5511 15.0848L38.2093 17.3294C38.0026 17.4844 37.9051 17.737 37.9452 17.9839V34.4998C37.9051 34.7524 38.0026 35.005 38.2093 35.1542L40.5052 37.3988V37.8983H28.9797V37.4218L31.3502 35.1198C31.5855 34.8844 31.5855 34.8155 31.5855 34.4653V21.1011L24.9848 37.8409H24.0951L16.4153 21.1011V32.3241C16.3464 32.7948 16.5128 33.2713 16.8458 33.61L19.9338 37.3472V37.8466H11.1634V37.3472L14.2514 33.61C14.4141 33.4419 14.5351 33.238 14.6049 33.0147C14.6747 32.7914 14.6912 32.5549 14.6531 32.3241V19.3502C14.6933 18.9885 14.5556 18.6383 14.2801 18.3915L11.5364 15.0848V14.5854H20.06L26.6378 29.0232L32.4293 14.5969H40.5511V15.0848Z" fill="#F6F6F6"/>
</svg>
