<svg width="52" height="51" viewBox="0 0 52 51" fill="none" xmlns="http://www.w3.org/2000/svg">
<path d="M26.1428 0.324463C11.9384 0.324463 0.42981 11.4757 0.42981 25.239C0.42981 39.0022 11.9384 50.1535 26.1428 50.1535C40.3471 50.1535 51.8557 39.0022 51.8557 25.239C51.8557 11.4757 40.3471 0.324463 26.1428 0.324463ZM38.7712 17.3929L34.5513 36.6615C34.2403 38.0278 33.4005 38.3593 32.2289 37.7163L25.8006 33.1252L22.7006 36.0185C22.3584 36.35 22.0681 36.6313 21.4045 36.6313L21.8607 30.2922L33.7737 19.8643C34.2921 19.4222 33.6597 19.1711 32.9754 19.6131L18.2526 28.5944L11.9073 26.6756C10.5284 26.2536 10.4973 25.3394 12.1976 24.6965L36.9878 15.4339C38.1387 15.0321 39.1444 15.7052 38.7712 17.3929Z" fill="#F6F6F6"/>
</svg>
