<svg width="52" height="52" viewBox="0 0 52 52" fill="none" xmlns="http://www.w3.org/2000/svg">
<path d="M25.9999 0.520752C11.7981 0.520752 0.285645 12.035 0.285645 26.239C0.285645 40.4429 11.7981 51.9572 25.9999 51.9572C40.2017 51.9572 51.7142 40.4429 51.7142 26.239C51.7142 12.035 40.2017 0.520752 25.9999 0.520752ZM36.4598 21.5882C36.4705 21.8079 36.4731 22.0276 36.4731 22.2419C36.4731 28.9394 31.3812 36.6575 22.0651 36.6575C19.3123 36.6621 16.6168 35.8714 14.3026 34.3804C14.6964 34.4286 15.1008 34.4473 15.5106 34.4473C17.8839 34.4473 20.0669 33.641 21.7999 32.2801C20.7438 32.2593 19.7205 31.9095 18.8725 31.2795C18.0246 30.6495 17.3943 29.7705 17.0696 28.7652C17.828 28.9095 18.6094 28.8792 19.3544 28.6768C18.2081 28.445 17.1772 27.8238 16.4366 26.9185C15.696 26.0133 15.2913 24.8797 15.291 23.71V23.6484C15.974 24.0261 16.7562 24.2565 17.5865 24.2833C16.5119 23.5678 15.7511 22.4688 15.4599 21.2109C15.1686 19.953 15.3688 18.6313 16.0196 17.5162C17.2918 19.0807 18.8783 20.3606 20.6765 21.273C22.4746 22.1853 24.4443 22.7098 26.458 22.8125C26.202 21.7257 26.3121 20.5847 26.7714 19.567C27.2306 18.5492 28.0132 17.7117 28.9974 17.1847C29.9817 16.6577 31.1124 16.4707 32.2139 16.6527C33.3154 16.8347 34.3259 17.3756 35.0883 18.1913C36.2218 17.967 37.3088 17.5512 38.3026 16.9617C37.9248 18.1354 37.1339 19.1321 36.0767 19.7665C37.0808 19.6456 38.0612 19.3756 38.9856 18.9655C38.3066 19.9833 37.4512 20.8715 36.4598 21.5882Z" fill="#F6F6F6"/>
</svg>
